<svg xmlns="http://www.w3.org/2000/svg" xmlns:v="https://svgstorm.com"
viewBox = "0 0 512 512"
width="512"
height="512">
<g fill="None" fill-opacity="0.0" stroke="#000000" stroke-opacity="0.00" stroke-width="0.3"><path d="
M 0.00 512.00 
L 512.00 512.00
L 512.00 0.00
L 0.00 0.00
L 0.00 512.00
M 372.00 8.00 
C 379.17 17.23 375.24 31.70 376.00 45.00 C 376.76 58.30 375.43 74.45 376.00 88.00
C 417.20 87.98 459.50 88.03 500.00 88.00
C 507.16 97.53 503.31 112.38 504.00 126.00 C 504.69 139.62 503.60 156.11 504.00 170.00 C 504.40 183.89 503.61 198.79 504.00 212.00
C 499.95 216.05 494.75 216.43 488.00 216.00
C 488.00 296.00 488.00 376.00 488.00 456.00
C 492.25 455.43 496.23 456.98 500.00 456.00
C 508.30 466.43 502.01 486.40 504.00 500.00
C 490.84 507.49 472.58 503.24 455.00 504.00 C 437.42 504.76 417.08 503.65 399.00 504.00 C 380.92 504.35 362.31 503.85 344.00 504.00 C 325.69 504.15 306.41 503.93 288.00 504.00 C 269.59 504.07 251.45 503.97 233.00 504.00 C 214.55 504.03 195.44 503.98 177.00 504.00 C 158.56 504.02 140.40 503.98 122.00 504.00 C 103.60 504.02 84.29 503.97 66.00 504.00 C 47.71 504.03 29.46 503.94 12.00 504.00
C 3.74 493.60 10.00 473.51 8.00 460.00
C 11.98 456.10 17.30 455.58 24.00 456.00
C 24.00 376.00 24.00 296.00 24.00 216.00
C 19.92 216.58 15.47 215.11 12.00 216.00
C 4.90 206.48 8.67 191.65 8.00 178.00 C 7.33 164.35 8.41 147.89 8.00 134.00 C 7.59 120.11 8.42 105.08 8.00 92.00
C 17.81 85.04 31.95 88.58 46.00 88.00 C 60.05 87.42 76.50 88.30 91.00 88.00 C 105.50 87.70 121.37 88.23 136.00 88.00
C 135.94 62.82 136.08 36.36 136.00 12.00
C 147.03 4.85 162.66 8.63 178.00 8.00 C 193.34 7.37 211.17 8.29 227.00 8.00 C 242.83 7.71 260.01 8.15 276.00 8.00 C 291.99 7.85 309.08 8.11 325.00 8.00 C 340.92 7.89 356.85 8.16 372.00 8.00 Z"/>
</g>
<g fill="None" fill-opacity="0.0" stroke="#000000" stroke-opacity="1.00" stroke-width="0.3"><path d="
M 372.00 8.00 
C 356.85 8.16 340.92 7.89 325.00 8.00 C 309.08 8.11 291.99 7.85 276.00 8.00 C 260.01 8.15 242.83 7.71 227.00 8.00 C 211.17 8.29 193.34 7.37 178.00 8.00 C 162.66 8.63 147.03 4.85 136.00 12.00
C 136.08 36.36 135.94 62.82 136.00 88.00
C 121.37 88.23 105.50 87.70 91.00 88.00 C 76.50 88.30 60.05 87.42 46.00 88.00 C 31.95 88.58 17.81 85.04 8.00 92.00
C 8.42 105.08 7.59 120.11 8.00 134.00 C 8.41 147.89 7.33 164.35 8.00 178.00 C 8.67 191.65 4.90 206.48 12.00 216.00
C 15.47 215.11 19.92 216.58 24.00 216.00
C 24.00 296.00 24.00 376.00 24.00 456.00
C 17.30 455.58 11.98 456.10 8.00 460.00
C 10.00 473.51 3.74 493.60 12.00 504.00
C 29.46 503.94 47.71 504.03 66.00 504.00 C 84.29 503.97 103.60 504.02 122.00 504.00 C 140.40 503.98 158.56 504.02 177.00 504.00 C 195.44 503.98 214.55 504.03 233.00 504.00 C 251.45 503.97 269.59 504.07 288.00 504.00 C 306.41 503.93 325.69 504.15 344.00 504.00 C 362.31 503.85 380.92 504.35 399.00 504.00 C 417.08 503.65 437.42 504.76 455.00 504.00 C 472.58 503.24 490.84 507.49 504.00 500.00
C 502.01 486.40 508.30 466.43 500.00 456.00
C 496.23 456.98 492.25 455.43 488.00 456.00
C 488.00 376.00 488.00 296.00 488.00 216.00
C 494.75 216.43 499.95 216.05 504.00 212.00
C 503.61 198.79 504.40 183.89 504.00 170.00 C 503.60 156.11 504.69 139.62 504.00 126.00 C 503.31 112.38 507.16 97.53 500.00 88.00
C 459.50 88.03 417.20 87.98 376.00 88.00
C 375.43 74.45 376.76 58.30 376.00 45.00 C 375.24 31.70 379.17 17.23 372.00 8.00
M 330.00 160.00 
C 341.11 140.68 335.80 115.64 321.00 100.00
C 332.42 95.18 340.89 83.90 343.00 72.00
C 343.73 68.36 344.00 64.90 344.00 61.00
C 341.13 51.56 318.50 56.16 310.98 56.98 C 303.45 57.79 291.35 65.65 288.00 73.00
C 281.14 68.44 275.80 59.18 267.00 57.00
C 266.00 62.33 261.31 66.45 261.00 72.00
C 268.38 74.98 274.76 82.43 277.00 90.00
C 269.60 90.73 261.98 94.50 257.00 100.00
C 250.07 95.87 243.00 91.18 235.00 89.00
C 238.18 82.06 243.69 74.71 251.00 72.00
C 250.69 66.47 246.00 62.35 245.00 57.00
C 236.20 59.18 230.84 68.47 224.00 73.00
C 219.52 66.13 212.38 59.52 203.98 58.02 C 195.57 56.53 180.51 52.80 171.93 56.93 C 163.34 61.06 169.81 76.73 172.92 83.08 C 176.04 89.42 184.00 97.42 191.00 100.00
C 173.41 117.89 170.40 148.80 188.00 168.00
C 176.00 168.00 164.00 168.00 152.00 168.00
C 152.00 120.00 152.00 72.00 152.00 24.00
C 216.00 24.00 280.00 24.00 344.00 24.00
C 349.33 24.00 354.67 24.00 360.00 24.00
C 360.00 72.00 360.00 120.00 360.00 168.00
C 348.00 168.00 336.00 168.00 324.00 168.00
C 325.82 165.21 327.81 162.28 330.00 160.00
M 214.00 88.00 
C 202.42 89.80 188.93 83.67 186.00 72.00
C 197.58 70.20 211.07 76.33 214.00 88.00
M 326.00 72.00 
C 323.04 83.68 309.63 89.78 298.00 88.00
C 300.96 76.32 314.37 70.22 326.00 72.00
M 136.00 104.00 
C 136.00 125.33 136.00 146.67 136.00 168.00
C 98.67 168.00 61.33 168.00 24.00 168.00
C 24.00 146.67 24.00 125.33 24.00 104.00
C 61.33 104.00 98.67 104.00 136.00 104.00
M 246.00 113.00 
C 237.96 126.81 237.97 145.20 246.00 159.00
C 226.29 178.78 192.06 163.07 192.00 136.00 C 191.94 108.93 226.26 93.18 246.00 113.00
M 293.00 104.00 
C 316.26 107.32 327.71 136.97 313.25 155.25 C 298.79 173.53 269.79 171.78 259.23 149.77 C 248.67 127.76 267.49 100.36 293.00 104.00
M 488.00 104.00 
C 488.00 125.33 488.00 146.67 488.00 168.00
C 450.67 168.00 413.33 168.00 376.00 168.00
C 376.00 146.67 376.00 125.33 376.00 104.00
C 413.33 104.00 450.67 104.00 488.00 104.00
M 488.00 184.00 
C 488.00 189.33 488.00 194.67 488.00 200.00
C 333.34 200.00 178.66 200.00 24.00 200.00
C 24.00 194.67 24.00 189.33 24.00 184.00
C 178.67 184.00 333.33 184.00 488.00 184.00
M 472.00 216.00 
C 472.00 296.00 472.00 376.00 472.00 456.00
C 466.67 456.00 461.33 456.00 456.00 456.00
C 455.90 440.72 456.14 425.26 456.00 410.00 C 455.86 394.74 456.26 378.08 456.00 363.00 C 455.74 347.92 456.55 330.51 456.00 316.00 C 455.45 301.49 457.21 282.18 456.00 269.00 C 454.79 255.82 462.45 233.88 447.00 232.00 C 431.54 230.12 415.62 232.65 400.00 232.00 C 384.38 231.35 368.76 231.85 353.00 232.00 C 337.24 232.15 321.96 230.94 306.00 232.00 C 290.04 233.06 296.88 254.57 296.00 268.00 C 295.12 281.43 296.40 300.35 296.00 315.00 C 295.60 329.65 296.19 346.81 296.00 362.00 C 295.81 377.19 296.10 393.58 296.00 409.00 C 295.90 424.42 296.07 440.52 296.00 456.00
C 210.67 456.00 125.33 456.00 40.00 456.00
C 40.00 376.00 40.00 296.00 40.00 216.00
C 184.00 216.00 328.00 216.00 472.00 216.00
M 368.00 440.00 
C 368.00 445.33 368.00 450.67 368.00 456.00
C 349.33 456.00 330.67 456.00 312.00 456.00
C 312.00 450.67 312.00 445.33 312.00 440.00
C 312.00 376.00 312.00 312.00 312.00 248.00
C 330.67 248.00 349.33 248.00 368.00 248.00
C 368.00 312.00 368.00 376.00 368.00 440.00
M 384.00 440.00 
C 384.00 376.00 384.00 312.00 384.00 248.00
C 397.33 248.00 410.67 248.00 424.00 248.00
C 429.33 248.00 434.67 248.00 440.00 248.00
C 440.00 317.33 440.00 386.67 440.00 456.00
C 421.33 456.00 402.67 456.00 384.00 456.00
C 384.00 450.67 384.00 445.33 384.00 440.00
M 488.00 472.00 
C 488.00 477.33 488.00 482.67 488.00 488.00
C 333.34 488.00 178.66 488.00 24.00 488.00
C 24.00 482.67 24.00 477.33 24.00 472.00
C 178.67 472.00 333.33 472.00 488.00 472.00 Z"/>
</g>
<g fill="None" fill-opacity="0.0" stroke="#FDEDB9" stroke-opacity="1.00" stroke-width="0.3"><path d="
M 344.00 61.00 
C 344.00 48.67 344.00 36.33 344.00 24.00
C 280.00 24.00 216.00 24.00 152.00 24.00
C 152.00 72.00 152.00 120.00 152.00 168.00
C 164.00 168.00 176.00 168.00 188.00 168.00
C 170.40 148.80 173.41 117.89 191.00 100.00
C 184.00 97.42 176.04 89.42 172.92 83.08 C 169.81 76.73 163.34 61.06 171.93 56.93 C 180.51 52.80 195.57 56.53 203.98 58.02 C 212.38 59.52 219.52 66.13 224.00 73.00
C 230.84 68.47 236.20 59.18 245.00 57.00
C 246.00 62.35 250.69 66.47 251.00 72.00
C 243.69 74.71 238.18 82.06 235.00 89.00
C 243.00 91.18 250.07 95.87 257.00 100.00
C 261.98 94.50 269.60 90.73 277.00 90.00
C 274.76 82.43 268.38 74.98 261.00 72.00
C 261.31 66.45 266.00 62.33 267.00 57.00
C 275.80 59.18 281.14 68.44 288.00 73.00
C 291.35 65.65 303.45 57.79 310.98 56.98 C 318.50 56.16 341.13 51.56 344.00 61.00 Z"/>
</g>
<g fill="None" fill-opacity="0.0" stroke="#FBE696" stroke-opacity="1.00" stroke-width="0.3"><path d="
M 344.00 61.00 
C 344.00 64.90 343.73 68.36 343.00 72.00
C 343.13 79.46 344.57 87.69 344.00 96.00 C 343.43 104.31 344.28 113.59 344.00 122.00 C 343.72 130.41 344.32 139.42 343.67 147.67 C 343.02 155.92 335.19 156.75 330.00 160.00
C 327.81 162.28 325.82 165.21 324.00 168.00
C 336.00 168.00 348.00 168.00 360.00 168.00
C 360.00 120.00 360.00 72.00 360.00 24.00
C 354.67 24.00 349.33 24.00 344.00 24.00
C 344.00 36.33 344.00 48.67 344.00 61.00 Z"/>
</g>
<g fill="None" fill-opacity="0.0" stroke="#52972B" stroke-opacity="1.00" stroke-width="0.3"><path d="
M 214.00 88.00 
C 211.07 76.33 197.58 70.20 186.00 72.00
C 188.93 83.67 202.42 89.80 214.00 88.00 Z"/>
</g>
<g fill="None" fill-opacity="0.0" stroke="#52972B" stroke-opacity="1.00" stroke-width="0.3"><path d="
M 326.00 72.00 
C 314.37 70.22 300.96 76.32 298.00 88.00
C 309.63 89.78 323.04 83.68 326.00 72.00 Z"/>
</g>
<g fill="None" fill-opacity="0.0" stroke="#FCECB8" stroke-opacity="1.00" stroke-width="0.3"><path d="
M 330.00 160.00 
C 335.19 156.75 343.02 155.92 343.67 147.67 C 344.32 139.42 343.72 130.41 344.00 122.00 C 344.28 113.59 343.43 104.31 344.00 96.00 C 344.57 87.69 343.13 79.46 343.00 72.00
C 340.89 83.90 332.42 95.18 321.00 100.00
C 335.80 115.64 341.11 140.68 330.00 160.00 Z"/>
</g>
<g fill="None" fill-opacity="0.0" stroke="#FAAD56" stroke-opacity="1.00" stroke-width="0.3"><path d="
M 136.00 104.00 
C 98.67 104.00 61.33 104.00 24.00 104.00
C 24.00 125.33 24.00 146.67 24.00 168.00
C 61.33 168.00 98.67 168.00 136.00 168.00
C 136.00 146.67 136.00 125.33 136.00 104.00 Z"/>
</g>
<g fill="None" fill-opacity="0.0" stroke="#F0A547" stroke-opacity="1.00" stroke-width="0.3"><path d="
M 246.00 113.00 
C 226.26 93.18 191.94 108.93 192.00 136.00 C 192.06 163.07 226.29 178.78 246.00 159.00
C 237.97 145.20 237.96 126.81 246.00 113.00 Z"/>
</g>
<g fill="None" fill-opacity="0.0" stroke="#D3863D" stroke-opacity="1.00" stroke-width="0.3"><path d="
M 293.00 104.00 
C 267.49 100.36 248.67 127.76 259.23 149.77 C 269.79 171.78 298.79 173.53 313.25 155.25 C 327.71 136.97 316.26 107.32 293.00 104.00 Z"/>
</g>
<g fill="None" fill-opacity="0.0" stroke="#F8AB52" stroke-opacity="1.00" stroke-width="0.3"><path d="
M 488.00 104.00 
C 450.67 104.00 413.33 104.00 376.00 104.00
C 376.00 125.33 376.00 146.67 376.00 168.00
C 413.33 168.00 450.67 168.00 488.00 168.00
C 488.00 146.67 488.00 125.33 488.00 104.00 Z"/>
</g>
<g fill="None" fill-opacity="0.0" stroke="#D5883E" stroke-opacity="1.00" stroke-width="0.3"><path d="
M 488.00 184.00 
C 333.33 184.00 178.67 184.00 24.00 184.00
C 24.00 189.33 24.00 194.67 24.00 200.00
C 178.66 200.00 333.34 200.00 488.00 200.00
C 488.00 194.67 488.00 189.33 488.00 184.00 Z"/>
</g>
<g fill="None" fill-opacity="0.0" stroke="#F5B83F" stroke-opacity="1.00" stroke-width="0.3"><path d="
M 472.00 216.00 
C 328.00 216.00 184.00 216.00 40.00 216.00
C 40.00 296.00 40.00 376.00 40.00 456.00
C 125.33 456.00 210.67 456.00 296.00 456.00
C 296.07 440.52 295.90 424.42 296.00 409.00 C 296.10 393.58 295.81 377.19 296.00 362.00 C 296.19 346.81 295.60 329.65 296.00 315.00 C 296.40 300.35 295.12 281.43 296.00 268.00 C 296.88 254.57 290.04 233.06 306.00 232.00 C 321.96 230.94 337.24 232.15 353.00 232.00 C 368.76 231.85 384.38 231.35 400.00 232.00 C 415.62 232.65 431.54 230.12 447.00 232.00 C 462.45 233.88 454.79 255.82 456.00 269.00 C 457.21 282.18 455.45 301.49 456.00 316.00 C 456.55 330.51 455.74 347.92 456.00 363.00 C 456.26 378.08 455.86 394.74 456.00 410.00 C 456.14 425.26 455.90 440.72 456.00 456.00
C 461.33 456.00 466.67 456.00 472.00 456.00
C 472.00 376.00 472.00 296.00 472.00 216.00
M 275.00 232.00 
C 284.94 235.02 278.78 253.81 280.00 263.00 C 281.22 272.19 279.57 288.42 280.00 299.00 C 280.43 309.58 280.06 323.96 280.00 335.00 C 279.94 346.04 280.59 360.15 280.00 371.00 C 279.41 381.85 281.51 397.11 280.00 407.00 C 278.49 416.89 285.26 433.84 275.92 438.92 C 266.57 444.00 251.95 438.48 241.00 440.00 C 230.05 441.52 216.48 439.42 205.00 440.00 C 193.52 440.58 180.66 439.98 169.00 440.00 C 157.34 440.03 144.62 440.51 133.00 440.00 C 121.38 439.49 108.33 441.40 97.00 440.00 C 85.67 438.60 71.83 443.37 61.33 439.67 C 50.83 435.97 57.25 418.73 56.00 409.00 C 54.75 399.27 56.45 383.83 56.00 373.00 C 55.55 362.17 55.95 348.15 56.00 337.00 C 56.05 325.85 55.42 311.90 56.00 301.00 C 56.58 290.10 54.49 274.91 56.00 265.00 C 57.51 255.09 50.73 238.17 60.08 233.08 C 69.43 228.00 84.05 233.53 95.00 232.00 C 105.95 230.47 119.51 232.58 131.00 232.00 C 142.49 231.42 155.31 232.02 167.00 232.00 C 178.69 231.98 191.31 231.46 203.00 232.00 C 214.69 232.54 227.51 230.55 239.00 232.00 C 250.49 233.45 264.06 228.68 275.00 232.00 Z"/>
</g>
<g fill="None" fill-opacity="0.0" stroke="#000000" stroke-opacity="1.00" stroke-width="0.3"><path d="
M 275.00 232.00 
C 264.06 228.68 250.49 233.45 239.00 232.00 C 227.51 230.55 214.69 232.54 203.00 232.00 C 191.31 231.46 178.69 231.98 167.00 232.00 C 155.31 232.02 142.49 231.42 131.00 232.00 C 119.51 232.58 105.95 230.47 95.00 232.00 C 84.05 233.53 69.43 228.00 60.08 233.08 C 50.73 238.17 57.51 255.09 56.00 265.00 C 54.49 274.91 56.58 290.10 56.00 301.00 C 55.42 311.90 56.05 325.85 56.00 337.00 C 55.95 348.15 55.55 362.17 56.00 373.00 C 56.45 383.83 54.75 399.27 56.00 409.00 C 57.25 418.73 50.83 435.97 61.33 439.67 C 71.83 443.37 85.67 438.60 97.00 440.00 C 108.33 441.40 121.38 439.49 133.00 440.00 C 144.62 440.51 157.34 440.03 169.00 440.00 C 180.66 439.98 193.52 440.58 205.00 440.00 C 216.48 439.42 230.05 441.52 241.00 440.00 C 251.95 438.48 266.57 444.00 275.92 438.92 C 285.26 433.84 278.49 416.89 280.00 407.00 C 281.51 397.11 279.41 381.85 280.00 371.00 C 280.59 360.15 279.94 346.04 280.00 335.00 C 280.06 323.96 280.43 309.58 280.00 299.00 C 279.57 288.42 281.22 272.19 280.00 263.00 C 278.78 253.81 284.94 235.02 275.00 232.00
M 232.00 408.00 
C 232.00 398.30 232.56 388.71 232.00 379.00 C 231.44 369.29 233.48 359.74 232.00 350.00 C 230.52 340.26 214.38 345.17 208.00 344.00
C 209.72 327.74 203.87 305.39 202.22 290.78 C 200.58 276.17 187.90 256.22 174.75 268.75 C 161.60 281.29 167.24 299.40 161.00 314.00
C 157.10 303.00 151.83 290.60 142.00 282.00
C 137.53 285.03 134.43 290.02 130.00 293.00
C 135.52 299.35 142.47 305.24 143.00 314.00
C 129.14 316.31 120.27 330.64 120.00 344.00
C 102.65 339.66 103.18 355.38 104.00 368.00 C 104.82 380.62 103.39 395.20 104.00 408.00
C 104.00 413.33 104.00 418.67 104.00 424.00
C 93.33 424.00 82.67 424.00 72.00 424.00
C 72.00 418.67 72.00 413.33 72.00 408.00
C 72.00 354.67 72.00 301.33 72.00 248.00
C 130.67 248.00 189.33 248.00 248.00 248.00
C 253.33 248.00 258.67 248.00 264.00 248.00
C 264.00 306.67 264.00 365.34 264.00 424.00
C 253.33 424.00 242.67 424.00 232.00 424.00
C 232.00 418.67 232.00 413.33 232.00 408.00
M 192.00 344.00 
C 180.79 346.98 185.43 335.82 180.23 329.77 C 175.03 323.72 177.87 315.10 178.93 307.93 C 179.98 300.75 180.51 292.18 184.00 286.00
C 190.07 304.03 191.54 324.19 192.00 344.00
M 168.00 344.00 
C 157.33 344.00 146.67 344.00 136.00 344.00
C 134.83 323.33 169.17 323.32 168.00 344.00
M 216.00 360.00 
C 216.00 381.33 216.00 402.67 216.00 424.00
C 184.00 424.00 152.00 424.00 120.00 424.00
C 120.00 402.67 120.00 381.33 120.00 360.00
C 152.00 360.00 184.00 360.00 216.00 360.00 Z"/>
</g>
<g fill="None" fill-opacity="0.0" stroke="#F1F1F1" stroke-opacity="1.00" stroke-width="0.3"><path d="
M 72.00 408.00 
C 82.67 408.00 93.33 408.00 104.00 408.00
C 103.39 395.20 104.82 380.62 104.00 368.00 C 103.18 355.38 102.65 339.66 120.00 344.00
C 120.27 330.64 129.14 316.31 143.00 314.00
C 142.47 305.24 135.52 299.35 130.00 293.00
C 134.43 290.02 137.53 285.03 142.00 282.00
C 151.83 290.60 157.10 303.00 161.00 314.00
C 167.24 299.40 161.60 281.29 174.75 268.75 C 187.90 256.22 200.58 276.17 202.22 290.78 C 203.87 305.39 209.72 327.74 208.00 344.00
C 214.38 345.17 230.52 340.26 232.00 350.00 C 233.48 359.74 231.44 369.29 232.00 379.00 C 232.56 388.71 232.00 398.30 232.00 408.00
C 256.08 410.53 246.95 383.62 248.00 366.00 C 249.05 348.38 247.45 325.60 248.00 307.00 C 248.55 288.40 247.59 266.87 248.00 248.00
C 189.33 248.00 130.67 248.00 72.00 248.00
C 72.00 301.33 72.00 354.67 72.00 408.00 Z"/>
</g>
<g fill="None" fill-opacity="0.0" stroke="#E2E7F6" stroke-opacity="1.00" stroke-width="0.3"><path d="
M 232.00 408.00 
C 232.00 413.33 232.00 418.67 232.00 424.00
C 242.67 424.00 253.33 424.00 264.00 424.00
C 264.00 365.34 264.00 306.67 264.00 248.00
C 258.67 248.00 253.33 248.00 248.00 248.00
C 247.59 266.87 248.55 288.40 248.00 307.00 C 247.45 325.60 249.05 348.38 248.00 366.00 C 246.95 383.62 256.08 410.53 232.00 408.00 Z"/>
</g>
<g fill="None" fill-opacity="0.0" stroke="#FEEEBA" stroke-opacity="1.00" stroke-width="0.3"><path d="
M 312.00 440.00 
C 330.67 440.00 349.33 440.00 368.00 440.00
C 368.00 376.00 368.00 312.00 368.00 248.00
C 349.33 248.00 330.67 248.00 312.00 248.00
C 312.00 312.00 312.00 376.00 312.00 440.00 Z"/>
</g>
<g fill="None" fill-opacity="0.0" stroke="#FEEEBA" stroke-opacity="1.00" stroke-width="0.3"><path d="
M 384.00 440.00 
C 397.33 440.00 410.67 440.00 424.00 440.00
C 424.00 376.00 424.00 312.00 424.00 248.00
C 410.67 248.00 397.33 248.00 384.00 248.00
C 384.00 312.00 384.00 376.00 384.00 440.00 Z"/>
</g>
<g fill="None" fill-opacity="0.0" stroke="#FCE797" stroke-opacity="1.00" stroke-width="0.3"><path d="
M 384.00 440.00 
C 384.00 445.33 384.00 450.67 384.00 456.00
C 402.67 456.00 421.33 456.00 440.00 456.00
C 440.00 386.67 440.00 317.33 440.00 248.00
C 434.67 248.00 429.33 248.00 424.00 248.00
C 424.00 312.00 424.00 376.00 424.00 440.00
C 410.67 440.00 397.33 440.00 384.00 440.00 Z"/>
</g>
<g fill="None" fill-opacity="0.0" stroke="#BC8A56" stroke-opacity="1.00" stroke-width="0.3"><path d="
M 192.00 344.00 
C 191.54 324.19 190.07 304.03 184.00 286.00
C 180.51 292.18 179.98 300.75 178.93 307.93 C 177.87 315.10 175.03 323.72 180.23 329.77 C 185.43 335.82 180.79 346.98 192.00 344.00 Z"/>
</g>
<g fill="None" fill-opacity="0.0" stroke="#EEA346" stroke-opacity="1.00" stroke-width="0.3"><path d="
M 168.00 344.00 
C 169.17 323.32 134.83 323.33 136.00 344.00
C 146.67 344.00 157.33 344.00 168.00 344.00 Z"/>
</g>
<g fill="None" fill-opacity="0.0" stroke="#6D462B" stroke-opacity="1.00" stroke-width="0.3"><path d="
M 216.00 360.00 
C 184.00 360.00 152.00 360.00 120.00 360.00
C 120.00 381.33 120.00 402.67 120.00 424.00
C 152.00 424.00 184.00 424.00 216.00 424.00
C 216.00 402.67 216.00 381.33 216.00 360.00 Z"/>
</g>
<g fill="None" fill-opacity="0.0" stroke="#E2E7F6" stroke-opacity="1.00" stroke-width="0.3"><path d="
M 104.00 408.00 
C 93.33 408.00 82.67 408.00 72.00 408.00
C 72.00 413.33 72.00 418.67 72.00 424.00
C 82.67 424.00 93.33 424.00 104.00 424.00
C 104.00 418.67 104.00 413.33 104.00 408.00 Z"/>
</g>
<g fill="None" fill-opacity="0.0" stroke="#FBE796" stroke-opacity="1.00" stroke-width="0.3"><path d="
M 368.00 440.00 
C 349.33 440.00 330.67 440.00 312.00 440.00
C 312.00 445.33 312.00 450.67 312.00 456.00
C 330.67 456.00 349.33 456.00 368.00 456.00
C 368.00 450.67 368.00 445.33 368.00 440.00 Z"/>
</g>
<g fill="None" fill-opacity="0.0" stroke="#D5883E" stroke-opacity="1.00" stroke-width="0.3"><path d="
M 488.00 472.00 
C 333.33 472.00 178.67 472.00 24.00 472.00
C 24.00 477.33 24.00 482.67 24.00 488.00
C 178.66 488.00 333.34 488.00 488.00 488.00
C 488.00 482.67 488.00 477.33 488.00 472.00 Z"/>
</g>
<g fill="#000000" fill-opacity="0.00" stroke="None">
<path d="
M 0.00 512.00 
L 512.00 512.00
L 512.00 0.00
L 0.00 0.00
L 0.00 512.00
M 372.00 8.00 
C 379.17 17.23 375.24 31.70 376.00 45.00 C 376.76 58.30 375.43 74.45 376.00 88.00
C 417.20 87.98 459.50 88.03 500.00 88.00
C 507.16 97.53 503.31 112.38 504.00 126.00 C 504.69 139.62 503.60 156.11 504.00 170.00 C 504.40 183.89 503.61 198.79 504.00 212.00
C 499.95 216.05 494.75 216.43 488.00 216.00
C 488.00 296.00 488.00 376.00 488.00 456.00
C 492.25 455.43 496.23 456.98 500.00 456.00
C 508.30 466.43 502.01 486.40 504.00 500.00
C 490.84 507.49 472.58 503.24 455.00 504.00 C 437.42 504.76 417.08 503.65 399.00 504.00 C 380.92 504.35 362.31 503.85 344.00 504.00 C 325.69 504.15 306.41 503.93 288.00 504.00 C 269.59 504.07 251.45 503.97 233.00 504.00 C 214.55 504.03 195.44 503.98 177.00 504.00 C 158.56 504.02 140.40 503.98 122.00 504.00 C 103.60 504.02 84.29 503.97 66.00 504.00 C 47.71 504.03 29.46 503.94 12.00 504.00
C 3.74 493.60 10.00 473.51 8.00 460.00
C 11.98 456.10 17.30 455.58 24.00 456.00
C 24.00 376.00 24.00 296.00 24.00 216.00
C 19.92 216.58 15.47 215.11 12.00 216.00
C 4.90 206.48 8.67 191.65 8.00 178.00 C 7.33 164.35 8.41 147.89 8.00 134.00 C 7.59 120.11 8.42 105.08 8.00 92.00
C 17.81 85.04 31.95 88.58 46.00 88.00 C 60.05 87.42 76.50 88.30 91.00 88.00 C 105.50 87.70 121.37 88.23 136.00 88.00
C 135.94 62.82 136.08 36.36 136.00 12.00
C 147.03 4.85 162.66 8.63 178.00 8.00 C 193.34 7.37 211.17 8.29 227.00 8.00 C 242.83 7.71 260.01 8.15 276.00 8.00 C 291.99 7.85 309.08 8.11 325.00 8.00 C 340.92 7.89 356.85 8.16 372.00 8.00 Z"/>
</g>
<g fill="#000000" fill-opacity="1.00" stroke="None">
<path d="
M 372.00 8.00 
C 356.85 8.16 340.92 7.89 325.00 8.00 C 309.08 8.11 291.99 7.85 276.00 8.00 C 260.01 8.15 242.83 7.71 227.00 8.00 C 211.17 8.29 193.34 7.37 178.00 8.00 C 162.66 8.63 147.03 4.85 136.00 12.00
C 136.08 36.36 135.94 62.82 136.00 88.00
C 121.37 88.23 105.50 87.70 91.00 88.00 C 76.50 88.30 60.05 87.42 46.00 88.00 C 31.95 88.58 17.81 85.04 8.00 92.00
C 8.42 105.08 7.59 120.11 8.00 134.00 C 8.41 147.89 7.33 164.35 8.00 178.00 C 8.67 191.65 4.90 206.48 12.00 216.00
C 15.47 215.11 19.92 216.58 24.00 216.00
C 24.00 296.00 24.00 376.00 24.00 456.00
C 17.30 455.58 11.98 456.10 8.00 460.00
C 10.00 473.51 3.74 493.60 12.00 504.00
C 29.46 503.94 47.71 504.03 66.00 504.00 C 84.29 503.97 103.60 504.02 122.00 504.00 C 140.40 503.98 158.56 504.02 177.00 504.00 C 195.44 503.98 214.55 504.03 233.00 504.00 C 251.45 503.97 269.59 504.07 288.00 504.00 C 306.41 503.93 325.69 504.15 344.00 504.00 C 362.31 503.85 380.92 504.35 399.00 504.00 C 417.08 503.65 437.42 504.76 455.00 504.00 C 472.58 503.24 490.84 507.49 504.00 500.00
C 502.01 486.40 508.30 466.43 500.00 456.00
C 496.23 456.98 492.25 455.43 488.00 456.00
C 488.00 376.00 488.00 296.00 488.00 216.00
C 494.75 216.43 499.95 216.05 504.00 212.00
C 503.61 198.79 504.40 183.89 504.00 170.00 C 503.60 156.11 504.69 139.62 504.00 126.00 C 503.31 112.38 507.16 97.53 500.00 88.00
C 459.50 88.03 417.20 87.98 376.00 88.00
C 375.43 74.45 376.76 58.30 376.00 45.00 C 375.24 31.70 379.17 17.23 372.00 8.00
M 330.00 160.00 
C 341.11 140.68 335.80 115.64 321.00 100.00
C 332.42 95.18 340.89 83.90 343.00 72.00
C 343.73 68.36 344.00 64.90 344.00 61.00
C 341.13 51.56 318.50 56.16 310.98 56.98 C 303.45 57.79 291.35 65.65 288.00 73.00
C 281.14 68.44 275.80 59.18 267.00 57.00
C 266.00 62.33 261.31 66.45 261.00 72.00
C 268.38 74.98 274.76 82.43 277.00 90.00
C 269.60 90.73 261.98 94.50 257.00 100.00
C 250.07 95.87 243.00 91.18 235.00 89.00
C 238.18 82.06 243.69 74.71 251.00 72.00
C 250.69 66.47 246.00 62.35 245.00 57.00
C 236.20 59.18 230.84 68.47 224.00 73.00
C 219.52 66.13 212.38 59.52 203.98 58.02 C 195.57 56.53 180.51 52.80 171.93 56.93 C 163.34 61.06 169.81 76.73 172.92 83.08 C 176.04 89.42 184.00 97.42 191.00 100.00
C 173.41 117.89 170.40 148.80 188.00 168.00
C 176.00 168.00 164.00 168.00 152.00 168.00
C 152.00 120.00 152.00 72.00 152.00 24.00
C 216.00 24.00 280.00 24.00 344.00 24.00
C 349.33 24.00 354.67 24.00 360.00 24.00
C 360.00 72.00 360.00 120.00 360.00 168.00
C 348.00 168.00 336.00 168.00 324.00 168.00
C 325.82 165.21 327.81 162.28 330.00 160.00
M 214.00 88.00 
C 202.42 89.80 188.93 83.67 186.00 72.00
C 197.58 70.20 211.07 76.33 214.00 88.00
M 326.00 72.00 
C 323.04 83.68 309.63 89.78 298.00 88.00
C 300.96 76.32 314.37 70.22 326.00 72.00
M 136.00 104.00 
C 136.00 125.33 136.00 146.67 136.00 168.00
C 98.67 168.00 61.33 168.00 24.00 168.00
C 24.00 146.67 24.00 125.33 24.00 104.00
C 61.33 104.00 98.67 104.00 136.00 104.00
M 246.00 113.00 
C 237.96 126.81 237.97 145.20 246.00 159.00
C 226.29 178.78 192.06 163.07 192.00 136.00 C 191.94 108.93 226.26 93.18 246.00 113.00
M 293.00 104.00 
C 316.26 107.32 327.71 136.97 313.25 155.25 C 298.79 173.53 269.79 171.78 259.23 149.77 C 248.67 127.76 267.49 100.36 293.00 104.00
M 488.00 104.00 
C 488.00 125.33 488.00 146.67 488.00 168.00
C 450.67 168.00 413.33 168.00 376.00 168.00
C 376.00 146.67 376.00 125.33 376.00 104.00
C 413.33 104.00 450.67 104.00 488.00 104.00
M 488.00 184.00 
C 488.00 189.33 488.00 194.67 488.00 200.00
C 333.34 200.00 178.66 200.00 24.00 200.00
C 24.00 194.67 24.00 189.33 24.00 184.00
C 178.67 184.00 333.33 184.00 488.00 184.00
M 472.00 216.00 
C 472.00 296.00 472.00 376.00 472.00 456.00
C 466.67 456.00 461.33 456.00 456.00 456.00
C 455.90 440.72 456.14 425.26 456.00 410.00 C 455.86 394.74 456.26 378.08 456.00 363.00 C 455.74 347.92 456.55 330.51 456.00 316.00 C 455.45 301.49 457.21 282.18 456.00 269.00 C 454.79 255.82 462.45 233.88 447.00 232.00 C 431.54 230.12 415.62 232.65 400.00 232.00 C 384.38 231.35 368.76 231.85 353.00 232.00 C 337.24 232.15 321.96 230.94 306.00 232.00 C 290.04 233.06 296.88 254.57 296.00 268.00 C 295.12 281.43 296.40 300.35 296.00 315.00 C 295.60 329.65 296.19 346.81 296.00 362.00 C 295.81 377.19 296.10 393.58 296.00 409.00 C 295.90 424.42 296.07 440.52 296.00 456.00
C 210.67 456.00 125.33 456.00 40.00 456.00
C 40.00 376.00 40.00 296.00 40.00 216.00
C 184.00 216.00 328.00 216.00 472.00 216.00
M 368.00 440.00 
C 368.00 445.33 368.00 450.67 368.00 456.00
C 349.33 456.00 330.67 456.00 312.00 456.00
C 312.00 450.67 312.00 445.33 312.00 440.00
C 312.00 376.00 312.00 312.00 312.00 248.00
C 330.67 248.00 349.33 248.00 368.00 248.00
C 368.00 312.00 368.00 376.00 368.00 440.00
M 384.00 440.00 
C 384.00 376.00 384.00 312.00 384.00 248.00
C 397.33 248.00 410.67 248.00 424.00 248.00
C 429.33 248.00 434.67 248.00 440.00 248.00
C 440.00 317.33 440.00 386.67 440.00 456.00
C 421.33 456.00 402.67 456.00 384.00 456.00
C 384.00 450.67 384.00 445.33 384.00 440.00
M 488.00 472.00 
C 488.00 477.33 488.00 482.67 488.00 488.00
C 333.34 488.00 178.66 488.00 24.00 488.00
C 24.00 482.67 24.00 477.33 24.00 472.00
C 178.67 472.00 333.33 472.00 488.00 472.00 Z"/>
</g>
<g fill="#FDEDB9" fill-opacity="1.00" stroke="None">
<path d="
M 344.00 61.00 
C 344.00 48.67 344.00 36.33 344.00 24.00
C 280.00 24.00 216.00 24.00 152.00 24.00
C 152.00 72.00 152.00 120.00 152.00 168.00
C 164.00 168.00 176.00 168.00 188.00 168.00
C 170.40 148.80 173.41 117.89 191.00 100.00
C 184.00 97.42 176.04 89.42 172.92 83.08 C 169.81 76.73 163.34 61.06 171.93 56.93 C 180.51 52.80 195.57 56.53 203.98 58.02 C 212.38 59.52 219.52 66.13 224.00 73.00
C 230.84 68.47 236.20 59.18 245.00 57.00
C 246.00 62.35 250.69 66.47 251.00 72.00
C 243.69 74.71 238.18 82.06 235.00 89.00
C 243.00 91.18 250.07 95.87 257.00 100.00
C 261.98 94.50 269.60 90.73 277.00 90.00
C 274.76 82.43 268.38 74.98 261.00 72.00
C 261.31 66.45 266.00 62.33 267.00 57.00
C 275.80 59.18 281.14 68.44 288.00 73.00
C 291.35 65.65 303.45 57.79 310.98 56.98 C 318.50 56.16 341.13 51.56 344.00 61.00 Z"/>
</g>
<g fill="#FBE696" fill-opacity="1.00" stroke="None">
<path d="
M 344.00 61.00 
C 344.00 64.90 343.73 68.36 343.00 72.00
C 343.13 79.46 344.57 87.69 344.00 96.00 C 343.43 104.31 344.28 113.59 344.00 122.00 C 343.72 130.41 344.32 139.42 343.67 147.67 C 343.02 155.92 335.19 156.75 330.00 160.00
C 327.81 162.28 325.82 165.21 324.00 168.00
C 336.00 168.00 348.00 168.00 360.00 168.00
C 360.00 120.00 360.00 72.00 360.00 24.00
C 354.67 24.00 349.33 24.00 344.00 24.00
C 344.00 36.33 344.00 48.67 344.00 61.00 Z"/>
</g>
<g fill="#52972B" fill-opacity="1.00" stroke="None">
<path d="
M 214.00 88.00 
C 211.07 76.33 197.58 70.20 186.00 72.00
C 188.93 83.67 202.42 89.80 214.00 88.00 Z"/>
</g>
<g fill="#52972B" fill-opacity="1.00" stroke="None">
<path d="
M 326.00 72.00 
C 314.37 70.22 300.96 76.32 298.00 88.00
C 309.63 89.78 323.04 83.68 326.00 72.00 Z"/>
</g>
<g fill="#FCECB8" fill-opacity="1.00" stroke="None">
<path d="
M 330.00 160.00 
C 335.19 156.75 343.02 155.92 343.67 147.67 C 344.32 139.42 343.72 130.41 344.00 122.00 C 344.28 113.59 343.43 104.31 344.00 96.00 C 344.57 87.69 343.13 79.46 343.00 72.00
C 340.89 83.90 332.42 95.18 321.00 100.00
C 335.80 115.64 341.11 140.68 330.00 160.00 Z"/>
</g>
<g fill="#FAAD56" fill-opacity="1.00" stroke="None">
<path d="
M 136.00 104.00 
C 98.67 104.00 61.33 104.00 24.00 104.00
C 24.00 125.33 24.00 146.67 24.00 168.00
C 61.33 168.00 98.67 168.00 136.00 168.00
C 136.00 146.67 136.00 125.33 136.00 104.00 Z"/>
</g>
<g fill="#F0A547" fill-opacity="1.00" stroke="None">
<path d="
M 246.00 113.00 
C 226.26 93.18 191.94 108.93 192.00 136.00 C 192.06 163.07 226.29 178.78 246.00 159.00
C 237.97 145.20 237.96 126.81 246.00 113.00 Z"/>
</g>
<g fill="#D3863D" fill-opacity="1.00" stroke="None">
<path d="
M 293.00 104.00 
C 267.49 100.36 248.67 127.76 259.23 149.77 C 269.79 171.78 298.79 173.53 313.25 155.25 C 327.71 136.97 316.26 107.32 293.00 104.00 Z"/>
</g>
<g fill="#F8AB52" fill-opacity="1.00" stroke="None">
<path d="
M 488.00 104.00 
C 450.67 104.00 413.33 104.00 376.00 104.00
C 376.00 125.33 376.00 146.67 376.00 168.00
C 413.33 168.00 450.67 168.00 488.00 168.00
C 488.00 146.67 488.00 125.33 488.00 104.00 Z"/>
</g>
<g fill="#D5883E" fill-opacity="1.00" stroke="None">
<path d="
M 488.00 184.00 
C 333.33 184.00 178.67 184.00 24.00 184.00
C 24.00 189.33 24.00 194.67 24.00 200.00
C 178.66 200.00 333.34 200.00 488.00 200.00
C 488.00 194.67 488.00 189.33 488.00 184.00 Z"/>
</g>
<g fill="#F5B83F" fill-opacity="1.00" stroke="None">
<path d="
M 472.00 216.00 
C 328.00 216.00 184.00 216.00 40.00 216.00
C 40.00 296.00 40.00 376.00 40.00 456.00
C 125.33 456.00 210.67 456.00 296.00 456.00
C 296.07 440.52 295.90 424.42 296.00 409.00 C 296.10 393.58 295.81 377.19 296.00 362.00 C 296.19 346.81 295.60 329.65 296.00 315.00 C 296.40 300.35 295.12 281.43 296.00 268.00 C 296.88 254.57 290.04 233.06 306.00 232.00 C 321.96 230.94 337.24 232.15 353.00 232.00 C 368.76 231.85 384.38 231.35 400.00 232.00 C 415.62 232.65 431.54 230.12 447.00 232.00 C 462.45 233.88 454.79 255.82 456.00 269.00 C 457.21 282.18 455.45 301.49 456.00 316.00 C 456.55 330.51 455.74 347.92 456.00 363.00 C 456.26 378.08 455.86 394.74 456.00 410.00 C 456.14 425.26 455.90 440.72 456.00 456.00
C 461.33 456.00 466.67 456.00 472.00 456.00
C 472.00 376.00 472.00 296.00 472.00 216.00
M 275.00 232.00 
C 284.94 235.02 278.78 253.81 280.00 263.00 C 281.22 272.19 279.57 288.42 280.00 299.00 C 280.43 309.58 280.06 323.96 280.00 335.00 C 279.94 346.04 280.59 360.15 280.00 371.00 C 279.41 381.85 281.51 397.11 280.00 407.00 C 278.49 416.89 285.26 433.84 275.92 438.92 C 266.57 444.00 251.95 438.48 241.00 440.00 C 230.05 441.52 216.48 439.42 205.00 440.00 C 193.52 440.58 180.66 439.98 169.00 440.00 C 157.34 440.03 144.62 440.51 133.00 440.00 C 121.38 439.49 108.33 441.40 97.00 440.00 C 85.67 438.60 71.83 443.37 61.33 439.67 C 50.83 435.97 57.25 418.73 56.00 409.00 C 54.75 399.27 56.45 383.83 56.00 373.00 C 55.55 362.17 55.95 348.15 56.00 337.00 C 56.05 325.85 55.42 311.90 56.00 301.00 C 56.58 290.10 54.49 274.91 56.00 265.00 C 57.51 255.09 50.73 238.17 60.08 233.08 C 69.43 228.00 84.05 233.53 95.00 232.00 C 105.95 230.47 119.51 232.58 131.00 232.00 C 142.49 231.42 155.31 232.02 167.00 232.00 C 178.69 231.98 191.31 231.46 203.00 232.00 C 214.69 232.54 227.51 230.55 239.00 232.00 C 250.49 233.45 264.06 228.68 275.00 232.00 Z"/>
</g>
<g fill="#000000" fill-opacity="1.00" stroke="None">
<path d="
M 275.00 232.00 
C 264.06 228.68 250.49 233.45 239.00 232.00 C 227.51 230.55 214.69 232.54 203.00 232.00 C 191.31 231.46 178.69 231.98 167.00 232.00 C 155.31 232.02 142.49 231.42 131.00 232.00 C 119.51 232.58 105.95 230.47 95.00 232.00 C 84.05 233.53 69.43 228.00 60.08 233.08 C 50.73 238.17 57.51 255.09 56.00 265.00 C 54.49 274.91 56.58 290.10 56.00 301.00 C 55.42 311.90 56.05 325.85 56.00 337.00 C 55.95 348.15 55.55 362.17 56.00 373.00 C 56.45 383.83 54.75 399.27 56.00 409.00 C 57.25 418.73 50.83 435.97 61.33 439.67 C 71.83 443.37 85.67 438.60 97.00 440.00 C 108.33 441.40 121.38 439.49 133.00 440.00 C 144.62 440.51 157.34 440.03 169.00 440.00 C 180.66 439.98 193.52 440.58 205.00 440.00 C 216.48 439.42 230.05 441.52 241.00 440.00 C 251.95 438.48 266.57 444.00 275.92 438.92 C 285.26 433.84 278.49 416.89 280.00 407.00 C 281.51 397.11 279.41 381.85 280.00 371.00 C 280.59 360.15 279.94 346.04 280.00 335.00 C 280.06 323.96 280.43 309.58 280.00 299.00 C 279.57 288.42 281.22 272.19 280.00 263.00 C 278.78 253.81 284.94 235.02 275.00 232.00
M 232.00 408.00 
C 232.00 398.30 232.56 388.71 232.00 379.00 C 231.44 369.29 233.48 359.74 232.00 350.00 C 230.52 340.26 214.38 345.17 208.00 344.00
C 209.72 327.74 203.87 305.39 202.22 290.78 C 200.58 276.17 187.90 256.22 174.75 268.75 C 161.60 281.29 167.24 299.40 161.00 314.00
C 157.10 303.00 151.83 290.60 142.00 282.00
C 137.53 285.03 134.43 290.02 130.00 293.00
C 135.52 299.35 142.47 305.24 143.00 314.00
C 129.14 316.31 120.27 330.64 120.00 344.00
C 102.65 339.66 103.18 355.38 104.00 368.00 C 104.82 380.62 103.39 395.20 104.00 408.00
C 104.00 413.33 104.00 418.67 104.00 424.00
C 93.33 424.00 82.67 424.00 72.00 424.00
C 72.00 418.67 72.00 413.33 72.00 408.00
C 72.00 354.67 72.00 301.33 72.00 248.00
C 130.67 248.00 189.33 248.00 248.00 248.00
C 253.33 248.00 258.67 248.00 264.00 248.00
C 264.00 306.67 264.00 365.34 264.00 424.00
C 253.33 424.00 242.67 424.00 232.00 424.00
C 232.00 418.67 232.00 413.33 232.00 408.00
M 192.00 344.00 
C 180.79 346.98 185.43 335.82 180.23 329.77 C 175.03 323.72 177.87 315.10 178.93 307.93 C 179.98 300.75 180.51 292.18 184.00 286.00
C 190.07 304.03 191.54 324.19 192.00 344.00
M 168.00 344.00 
C 157.33 344.00 146.67 344.00 136.00 344.00
C 134.83 323.33 169.17 323.32 168.00 344.00
M 216.00 360.00 
C 216.00 381.33 216.00 402.67 216.00 424.00
C 184.00 424.00 152.00 424.00 120.00 424.00
C 120.00 402.67 120.00 381.33 120.00 360.00
C 152.00 360.00 184.00 360.00 216.00 360.00 Z"/>
</g>
<g fill="#F1F1F1" fill-opacity="1.00" stroke="None">
<path d="
M 72.00 408.00 
C 82.67 408.00 93.33 408.00 104.00 408.00
C 103.39 395.20 104.82 380.62 104.00 368.00 C 103.18 355.38 102.65 339.66 120.00 344.00
C 120.27 330.64 129.14 316.31 143.00 314.00
C 142.47 305.24 135.52 299.35 130.00 293.00
C 134.43 290.02 137.53 285.03 142.00 282.00
C 151.83 290.60 157.10 303.00 161.00 314.00
C 167.24 299.40 161.60 281.29 174.75 268.75 C 187.90 256.22 200.58 276.17 202.22 290.78 C 203.87 305.39 209.72 327.74 208.00 344.00
C 214.38 345.17 230.52 340.26 232.00 350.00 C 233.48 359.74 231.44 369.29 232.00 379.00 C 232.56 388.71 232.00 398.30 232.00 408.00
C 256.08 410.53 246.95 383.62 248.00 366.00 C 249.05 348.38 247.45 325.60 248.00 307.00 C 248.55 288.40 247.59 266.87 248.00 248.00
C 189.33 248.00 130.67 248.00 72.00 248.00
C 72.00 301.33 72.00 354.67 72.00 408.00 Z"/>
</g>
<g fill="#E2E7F6" fill-opacity="1.00" stroke="None">
<path d="
M 232.00 408.00 
C 232.00 413.33 232.00 418.67 232.00 424.00
C 242.67 424.00 253.33 424.00 264.00 424.00
C 264.00 365.34 264.00 306.67 264.00 248.00
C 258.67 248.00 253.33 248.00 248.00 248.00
C 247.59 266.87 248.55 288.40 248.00 307.00 C 247.45 325.60 249.05 348.38 248.00 366.00 C 246.95 383.62 256.08 410.53 232.00 408.00 Z"/>
</g>
<g fill="#FEEEBA" fill-opacity="1.00" stroke="None">
<path d="
M 312.00 440.00 
C 330.67 440.00 349.33 440.00 368.00 440.00
C 368.00 376.00 368.00 312.00 368.00 248.00
C 349.33 248.00 330.67 248.00 312.00 248.00
C 312.00 312.00 312.00 376.00 312.00 440.00 Z"/>
</g>
<g fill="#FEEEBA" fill-opacity="1.00" stroke="None">
<path d="
M 384.00 440.00 
C 397.33 440.00 410.67 440.00 424.00 440.00
C 424.00 376.00 424.00 312.00 424.00 248.00
C 410.67 248.00 397.33 248.00 384.00 248.00
C 384.00 312.00 384.00 376.00 384.00 440.00 Z"/>
</g>
<g fill="#FCE797" fill-opacity="1.00" stroke="None">
<path d="
M 384.00 440.00 
C 384.00 445.33 384.00 450.67 384.00 456.00
C 402.67 456.00 421.33 456.00 440.00 456.00
C 440.00 386.67 440.00 317.33 440.00 248.00
C 434.67 248.00 429.33 248.00 424.00 248.00
C 424.00 312.00 424.00 376.00 424.00 440.00
C 410.67 440.00 397.33 440.00 384.00 440.00 Z"/>
</g>
<g fill="#BC8A56" fill-opacity="1.00" stroke="None">
<path d="
M 192.00 344.00 
C 191.54 324.19 190.07 304.03 184.00 286.00
C 180.51 292.18 179.98 300.75 178.93 307.93 C 177.87 315.10 175.03 323.72 180.23 329.77 C 185.43 335.82 180.79 346.98 192.00 344.00 Z"/>
</g>
<g fill="#EEA346" fill-opacity="1.00" stroke="None">
<path d="
M 168.00 344.00 
C 169.17 323.32 134.83 323.33 136.00 344.00
C 146.67 344.00 157.33 344.00 168.00 344.00 Z"/>
</g>
<g fill="#6D462B" fill-opacity="1.00" stroke="None">
<path d="
M 216.00 360.00 
C 184.00 360.00 152.00 360.00 120.00 360.00
C 120.00 381.33 120.00 402.67 120.00 424.00
C 152.00 424.00 184.00 424.00 216.00 424.00
C 216.00 402.67 216.00 381.33 216.00 360.00 Z"/>
</g>
<g fill="#E2E7F6" fill-opacity="1.00" stroke="None">
<path d="
M 104.00 408.00 
C 93.33 408.00 82.67 408.00 72.00 408.00
C 72.00 413.33 72.00 418.67 72.00 424.00
C 82.67 424.00 93.33 424.00 104.00 424.00
C 104.00 418.67 104.00 413.33 104.00 408.00 Z"/>
</g>
<g fill="#FBE796" fill-opacity="1.00" stroke="None">
<path d="
M 368.00 440.00 
C 349.33 440.00 330.67 440.00 312.00 440.00
C 312.00 445.33 312.00 450.67 312.00 456.00
C 330.67 456.00 349.33 456.00 368.00 456.00
C 368.00 450.67 368.00 445.33 368.00 440.00 Z"/>
</g>
<g fill="#D5883E" fill-opacity="1.00" stroke="None">
<path d="
M 488.00 472.00 
C 333.33 472.00 178.67 472.00 24.00 472.00
C 24.00 477.33 24.00 482.67 24.00 488.00
C 178.66 488.00 333.34 488.00 488.00 488.00
C 488.00 482.67 488.00 477.33 488.00 472.00 Z"/>
</g>
</svg>